REM DIRINDEX 1\2\3,1\2\4,1\2\5,1\2\6
REM DIRNAME folder01,folder02,folder03,folder04,folder05,folder06
TITLE ""
FILE "177 177.mp3" MP3
  TRACK 01 AUDIO
    TITLE "0:"
    INDEX 01 00:00:00
  TRACK 02 AUDIO
    TITLE "3:cjc157_6419"
    INDEX 01 00:00:13
  TRACK 03 AUDIO
    TITLE "0:"
    INDEX 01 00:01:38
  TRACK 04 AUDIO
    TITLE "4:cjc157_6420"
    INDEX 01 00:02:10
  TRACK 05 AUDIO
    TITLE "0:"
    INDEX 01 00:03:51
  TRACK 06 AUDIO
    TITLE "5:cjc157_6421"
    INDEX 01 00:04:21
  TRACK 07 AUDIO
    TITLE "0:"
    INDEX 01 00:09:02
  TRACK 08 AUDIO
    TITLE "3:cjc157_6422"
    INDEX 01 00:09:49
  TRACK 09 AUDIO
    TITLE "0:"
    INDEX 01 00:11:11
  TRACK 10 AUDIO
    TITLE "4:cjc157_6423"
    INDEX 01 00:11:58
  TRACK 11 AUDIO
    TITLE "0:"
    INDEX 01 00:12:73
  TRACK 12 AUDIO
    TITLE "5:cjc157_6424"
    INDEX 01 00:13:39
  TRACK 13 AUDIO
    TITLE "0:"
    INDEX 01 00:16:53
  TRACK 14 AUDIO
    TITLE "5:cjc157_6425"
    INDEX 01 00:17:21
  TRACK 15 AUDIO
    TITLE "0:"
    INDEX 01 00:22:50
  TRACK 16 AUDIO
    TITLE "5:cjc157_6426"
    INDEX 01 00:23:24
  TRACK 17 AUDIO
    TITLE "0:"
    INDEX 01 00:25:52
  TRACK 18 AUDIO
    TITLE "3:cjc157_6427"
    INDEX 01 00:26:26
  TRACK 19 AUDIO
    TITLE "0:"
    INDEX 01 00:28:12
  TRACK 20 AUDIO
    TITLE "4:cjc157_6428"
    INDEX 01 00:28:57
  TRACK 21 AUDIO
    TITLE "0:"
    INDEX 01 00:30:20
  TRACK 22 AUDIO
    TITLE "5:cjc157_6429"
    INDEX 01 00:30:63
  TRACK 23 AUDIO
    TITLE "0:"
    INDEX 01 00:34:06
  TRACK 24 AUDIO
    TITLE "3:cjc157_6430"
    INDEX 01 00:34:53
  TRACK 25 AUDIO
    TITLE "0:"
    INDEX 01 00:36:09
  TRACK 26 AUDIO
    TITLE "4:cjc157_6431"
    INDEX 01 00:36:54
  TRACK 27 AUDIO
    TITLE "0:"
    INDEX 01 00:38:31
  TRACK 28 AUDIO
    TITLE "5:cjc157_6432"
    INDEX 01 00:39:13
  TRACK 29 AUDIO
    TITLE "0:"
    INDEX 01 00:41:20
  TRACK 30 AUDIO
    TITLE "5:cjc157_6433"
    INDEX 01 00:41:67
  TRACK 31 AUDIO
    TITLE "0:"
    INDEX 01 00:44:22
  TRACK 32 AUDIO
    TITLE "3:cjc157_6434"
    INDEX 01 00:44:65
  TRACK 33 AUDIO
    TITLE "0:"
    INDEX 01 00:47:27
  TRACK 34 AUDIO
    TITLE "4:cjc157_6435"
    INDEX 01 00:47:74
  TRACK 35 AUDIO
    TITLE "0:"
    INDEX 01 00:50:21
  TRACK 36 AUDIO
    TITLE "5:cjc157_6436"
    INDEX 01 00:50:62
  TRACK 37 AUDIO
    TITLE "0:"
    INDEX 01 00:54:52
  TRACK 38 AUDIO
    TITLE "3:cjc157_6437"
    INDEX 01 00:55:28
  TRACK 39 AUDIO
    TITLE "0:"
    INDEX 01 00:58:07
  TRACK 40 AUDIO
    TITLE "4:cjc157_6438"
    INDEX 01 00:58:56
  TRACK 41 AUDIO
    TITLE "0:"
    INDEX 01 01:01:05
  TRACK 42 AUDIO
    TITLE "5:cjc157_6439"
    INDEX 01 01:01:54
  TRACK 43 AUDIO
    TITLE "0:"
    INDEX 01 01:05:21
  TRACK 44 AUDIO
    TITLE "5:cjc157_6440"
    INDEX 01 01:05:64
  TRACK 45 AUDIO
    TITLE "0:"
    INDEX 01 01:09:10
  TRACK 46 AUDIO
    TITLE "3:cjc157_6441"
    INDEX 01 01:09:59
  TRACK 47 AUDIO
    TITLE "0:"
    INDEX 01 01:11:33
  TRACK 48 AUDIO
    TITLE "4:cjc157_6442"
    INDEX 01 01:12:03
  TRACK 49 AUDIO
    TITLE "0:"
    INDEX 01 01:14:02
  TRACK 50 AUDIO
    TITLE "5:cjc157_6443"
    INDEX 01 01:14:61
  TRACK 51 AUDIO
    TITLE "0:"
    INDEX 01 01:17:22
  TRACK 52 AUDIO
    TITLE "3:cjc157_6444"
    INDEX 01 01:17:73
  TRACK 53 AUDIO
    TITLE "0:"
    INDEX 01 01:19:28
  TRACK 54 AUDIO
    TITLE "4:cjc157_6445"
    INDEX 01 01:20:00
  TRACK 55 AUDIO
    TITLE "0:"
    INDEX 01 01:21:23
  TRACK 56 AUDIO
    TITLE "5:cjc157_6446"
    INDEX 01 01:21:69
  TRACK 57 AUDIO
    TITLE "0:"
    INDEX 01 01:25:37
  TRACK 58 AUDIO
    TITLE "5:cjc157_6447"
    INDEX 01 01:26:17
  TRACK 59 AUDIO
    TITLE "0:"
    INDEX 01 01:28:37
  TRACK 60 AUDIO
    TITLE "3:cjc157_6448"
    INDEX 01 01:29:05
  TRACK 61 AUDIO
    TITLE "0:"
    INDEX 01 01:30:15
  TRACK 62 AUDIO
    TITLE "4:cjc157_6449"
    INDEX 01 01:30:60
  TRACK 63 AUDIO
    TITLE "0:"
    INDEX 01 01:32:08
  TRACK 64 AUDIO
    TITLE "5:cjc157_6450"
    INDEX 01 01:32:60
  TRACK 65 AUDIO
    TITLE "0:"
    INDEX 01 01:35:22
  TRACK 66 AUDIO
    TITLE "3:cjc157_6451"
    INDEX 01 01:35:69
  TRACK 67 AUDIO
    TITLE "0:"
    INDEX 01 01:37:13
  TRACK 68 AUDIO
    TITLE "4:cjc157_6452"
    INDEX 01 01:37:60
  TRACK 69 AUDIO
    TITLE "0:"
    INDEX 01 01:39:15
  TRACK 70 AUDIO
    TITLE "5:cjc157_6453"
    INDEX 01 01:39:64
  TRACK 71 AUDIO
    TITLE "0:"
    INDEX 01 01:43:31
